HIERARCHY
ROOT Hips
{
	OFFSET 0.000000 71.427986 0.000000
	CHANNELS 6 Xposition Yposition Zposition Xrotation Yrotation Zrotation
	JOINT Pelvis
	{
		OFFSET 0.000000 0.000000 0.000000
		CHANNELS 3 Xrotation Yrotation Zrotation
		JOINT LeftUpLeg
		{
			OFFSET 6.797100 -2.508499 -1.318700
			CHANNELS 3 Xrotation Yrotation Zrotation
			JOINT LeftLeg
			{
				OFFSET 0.069008 -29.241863 0.690200
				CHANNELS 3 Xrotation Yrotation Zrotation
				JOINT LeftFoot
				{
					OFFSET -0.069008 -29.568123 -0.266800
					CHANNELS 3 Xrotation Yrotation Zrotation
					JOINT LeftToeBase
					{
						OFFSET 3.145500 -8.631000 16.059900
						CHANNELS 3 Xrotation Yrotation Zrotation
						End Site
						{
							OFFSET 0.000000 18.501587 0.000000
						}
					}
				}
			}
			JOINT Left_ShortSleeve
			{
				OFFSET 0.265923 -10.480953 1.153800
				CHANNELS 3 Xrotation Yrotation Zrotation
				End Site
				{
					OFFSET 1.725763 19.823879 0.000000
				}
			}
		}
		JOINT RightUpLeg
		{
			OFFSET -6.797100 -2.508499 -1.318700
			CHANNELS 3 Xrotation Yrotation Zrotation
			JOINT RightLeg
			{
				OFFSET -0.082453 -29.241932 0.688000
				CHANNELS 3 Xrotation Yrotation Zrotation
				JOINT RightFoot
				{
					OFFSET 0.082453 -29.568058 -0.264600
					CHANNELS 3 Xrotation Yrotation Zrotation
					JOINT RightToeBase
					{
						OFFSET -3.115300 -8.682800 16.113400
						CHANNELS 3 Xrotation Yrotation Zrotation
						End Site
						{
							OFFSET 0.000000 18.567114 0.000000
						}
					}
				}
			}
			JOINT Right_ShortSleeve
			{
				OFFSET -0.265923 -10.480953 1.153800
				CHANNELS 3 Xrotation Yrotation Zrotation
				End Site
				{
					OFFSET -1.725766 19.823910 0.000000
				}
			}
		}
	}
	JOINT Spine
	{
		OFFSET 0.000000 13.368103 0.470500
		CHANNELS 3 Xrotation Yrotation Zrotation
		JOINT Spine1
		{
			OFFSET 0.147000 13.837402 0.538800
			CHANNELS 3 Xrotation Yrotation Zrotation
			JOINT Spine2
			{
				OFFSET 0.168000 16.242897 -1.435500
				CHANNELS 3 Xrotation Yrotation Zrotation
				JOINT Neck
				{
					OFFSET 0.217200 18.631500 -1.679100
					CHANNELS 3 Xrotation Yrotation Zrotation
					JOINT Head
					{
						OFFSET 0.000000 6.599396 1.385900
						CHANNELS 3 Xrotation Yrotation Zrotation
						JOINT Hat
						{
							OFFSET -0.532200 27.220596 -10.096100
							CHANNELS 3 Xrotation Yrotation Zrotation
							End Site
							{
								OFFSET 0.000000 22.029861 0.000000
							}
						}
						JOINT HairD
						{
							OFFSET -10.777400 17.437393 -1.325900
							CHANNELS 3 Xrotation Yrotation Zrotation
							JOINT HairD1
							{
								OFFSET -3.290299 -11.051193 1.062200
								CHANNELS 3 Xrotation Yrotation Zrotation
								End Site
								{
									OFFSET 0.000000 11.579437 0.000000
								}
							}
						}
						JOINT HairB
						{
							OFFSET -10.777400 17.437393 1.467900
							CHANNELS 3 Xrotation Yrotation Zrotation
							JOINT HairB1
							{
								OFFSET -1.561200 -12.956299 3.590200
								CHANNELS 3 Xrotation Yrotation Zrotation
								End Site
								{
									OFFSET 0.000000 13.534866 0.000000
								}
							}
						}
						JOINT HairA
						{
							OFFSET 9.713100 17.437393 1.467900
							CHANNELS 3 Xrotation Yrotation Zrotation
							JOINT HairA1
							{
								OFFSET 1.561200 -12.956299 3.590200
								CHANNELS 3 Xrotation Yrotation Zrotation
								End Site
								{
									OFFSET 0.000000 13.534866 0.000000
								}
							}
						}
						JOINT HairC
						{
							OFFSET 9.713100 17.437393 -1.325900
							CHANNELS 3 Xrotation Yrotation Zrotation
							JOINT HairC1
							{
								OFFSET 3.290300 -11.051193 1.062200
								CHANNELS 3 Xrotation Yrotation Zrotation
								End Site
								{
									OFFSET 0.000000 11.579437 0.000000
								}
							}
						}
					}
				}
				JOINT LeftShoulder
				{
					OFFSET 5.101800 15.108002 -2.763700
					CHANNELS 3 Xrotation Yrotation Zrotation
					JOINT LeftArm
					{
						OFFSET 9.825497 2.506317 -1.597400
						CHANNELS 3 Xrotation Yrotation Zrotation
						JOINT LeftForeArm
						{
							OFFSET 21.966244 0.000000 0.000000
							CHANNELS 3 Xrotation Yrotation Zrotation
							JOINT LeftHand
							{
								OFFSET 33.879036 0.000000 0.000000
								CHANNELS 3 Xrotation Yrotation Zrotation
								JOINT LeftHandThumb1
								{
									OFFSET 6.715286 -2.359680 3.363841
									CHANNELS 3 Xrotation Yrotation Zrotation
									JOINT LeftHandThumb2
									{
										OFFSET 2.507072 -1.447464 1.447461
										CHANNELS 3 Xrotation Yrotation Zrotation
										JOINT LeftHandThumb3
										{
											OFFSET 2.898338 -1.673355 1.673357
											CHANNELS 3 Xrotation Yrotation Zrotation
											End Site
											{
												OFFSET -0.295959 3.727692 -0.131651
											}
										}
									}
								}
								JOINT LeftHandIndex1
								{
									OFFSET 14.190811 -0.254547 3.840278
									CHANNELS 3 Xrotation Yrotation Zrotation
									JOINT LeftHandIndex2
									{
										OFFSET 3.551727 0.000000 -0.000000
										CHANNELS 3 Xrotation Yrotation Zrotation
										JOINT LeftHandIndex3
										{
											OFFSET 2.894196 0.000000 0.000000
											CHANNELS 3 Xrotation Yrotation Zrotation
											End Site
											{
												OFFSET -1.000603 2.690872 0.366626
											}
										}
									}
								}
								JOINT LeftHandMiddle1
								{
									OFFSET 13.776489 0.000000 0.000000
									CHANNELS 3 Xrotation Yrotation Zrotation
									JOINT LeftHandMiddle2
									{
										OFFSET 3.438232 0.000000 0.000000
										CHANNELS 3 Xrotation Yrotation Zrotation
										JOINT LeftHandMiddle3
										{
											OFFSET 3.691551 0.000000 0.000000
											CHANNELS 3 Xrotation Yrotation Zrotation
											End Site
											{
												OFFSET -1.082298 3.499527 0.457670
											}
										}
									}
								}
								JOINT LeftHandRing1
								{
									OFFSET 13.966164 -0.268127 -3.067488
									CHANNELS 3 Xrotation Yrotation Zrotation
									JOINT LeftHandRing2
									{
										OFFSET 3.162567 0.000000 0.000000
										CHANNELS 3 Xrotation Yrotation Zrotation
										JOINT LeftHandRing3
										{
											OFFSET 3.324348 0.000000 0.000000
											CHANNELS 3 Xrotation Yrotation Zrotation
											End Site
											{
												OFFSET -0.861900 3.184998 0.405154
											}
										}
									}
								}
								JOINT LeftHandPinky1
								{
									OFFSET 13.131393 -0.168503 -5.746925
									CHANNELS 3 Xrotation Yrotation Zrotation
									JOINT LeftHandPinky2
									{
										OFFSET 2.849182 0.000000 0.000000
										CHANNELS 3 Xrotation Yrotation Zrotation
										JOINT LeftHandPinky3
										{
											OFFSET 2.805038 0.000000 0.000000
											CHANNELS 3 Xrotation Yrotation Zrotation
											End Site
											{
												OFFSET -0.882500 2.642609 0.325652
											}
										}
									}
								}
							}
							JOINT Left_Sleeve
							{
								OFFSET 6.592125 -0.646545 0.805568
								CHANNELS 3 Xrotation Yrotation Zrotation
								End Site
								{
									OFFSET -0.000179 20.275787 -0.000000
								}
							}
						}
					}
				}
				JOINT RightShoulder
				{
					OFFSET -5.731700 15.108002 -2.763700
					CHANNELS 3 Xrotation Yrotation Zrotation
					JOINT RightArm
					{
						OFFSET -9.825497 2.506317 -1.597400
						CHANNELS 3 Xrotation Yrotation Zrotation
						JOINT RightForeArm
						{
							OFFSET -21.966242 0.000000 0.000000
							CHANNELS 3 Xrotation Yrotation Zrotation
							JOINT RightHand
							{
								OFFSET -33.879032 0.000000 0.000000
								CHANNELS 3 Xrotation Yrotation Zrotation
								JOINT RightHandThumb1
								{
									OFFSET -6.715286 -2.359680 3.363841
									CHANNELS 3 Xrotation Yrotation Zrotation
									JOINT RightHandThumb2
									{
										OFFSET -2.507072 -1.447464 1.447461
										CHANNELS 3 Xrotation Yrotation Zrotation
										JOINT RightHandThumb3
										{
											OFFSET -2.898338 -1.673355 1.673357
											CHANNELS 3 Xrotation Yrotation Zrotation
											End Site
											{
												OFFSET 0.295959 3.727692 -0.131651
											}
										}
									}
								}
								JOINT RightHandIndex1
								{
									OFFSET -14.190811 -0.254547 3.840278
									CHANNELS 3 Xrotation Yrotation Zrotation
									JOINT RightHandIndex2
									{
										OFFSET -3.551727 0.000000 -0.000000
										CHANNELS 3 Xrotation Yrotation Zrotation
										JOINT RightHandIndex3
										{
											OFFSET -2.894196 0.000000 0.000000
											CHANNELS 3 Xrotation Yrotation Zrotation
											End Site
											{
												OFFSET 1.000603 2.690872 0.366626
											}
										}
									}
								}
								JOINT RightHandMiddle1
								{
									OFFSET -13.776489 0.000000 0.000000
									CHANNELS 3 Xrotation Yrotation Zrotation
									JOINT RightHandMiddle2
									{
										OFFSET -3.438232 0.000000 0.000000
										CHANNELS 3 Xrotation Yrotation Zrotation
										JOINT RightHandMiddle3
										{
											OFFSET -3.691551 0.000000 0.000000
											CHANNELS 3 Xrotation Yrotation Zrotation
											End Site
											{
												OFFSET 1.082298 3.499527 0.457670
											}
										}
									}
								}
								JOINT RightHandRing1
								{
									OFFSET -13.966164 -0.268127 -3.067488
									CHANNELS 3 Xrotation Yrotation Zrotation
									JOINT RightHandRing2
									{
										OFFSET -3.162567 0.000000 0.000000
										CHANNELS 3 Xrotation Yrotation Zrotation
										JOINT RightHandRing3
										{
											OFFSET -3.324348 0.000000 0.000000
											CHANNELS 3 Xrotation Yrotation Zrotation
											End Site
											{
												OFFSET 0.861900 3.184998 0.405154
											}
										}
									}
								}
								JOINT RightHandPinky1
								{
									OFFSET -13.131393 -0.168503 -5.746925
									CHANNELS 3 Xrotation Yrotation Zrotation
									JOINT RightHandPinky2
									{
										OFFSET -2.849182 0.000000 0.000000
										CHANNELS 3 Xrotation Yrotation Zrotation
										JOINT RightHandPinky3
										{
											OFFSET -2.805038 0.000000 0.000000
											CHANNELS 3 Xrotation Yrotation Zrotation
											End Site
											{
												OFFSET 0.882500 2.642609 0.325652
											}
										}
									}
								}
							}
							JOINT Right_Sleeve
							{
								OFFSET -6.592125 -0.646545 0.805568
								CHANNELS 3 Xrotation Yrotation Zrotation
								End Site
								{
									OFFSET 0.000179 20.275787 -0.000000
								}
							}
						}
					}
				}
				JOINT Bind_Right_JacketString
				{
					OFFSET -3.534800 11.969597 7.200700
					CHANNELS 3 Xrotation Yrotation Zrotation
					JOINT Bind_Right_JacketString1
					{
						OFFSET -0.319900 -6.102600 2.794100
						CHANNELS 3 Xrotation Yrotation Zrotation
						End Site
						{
							OFFSET 0.000000 6.719452 0.000000
						}
					}
				}
				JOINT Bind_Left_JacketString
				{
					OFFSET 2.904800 11.969597 7.200700
					CHANNELS 3 Xrotation Yrotation Zrotation
					JOINT Bind_Left_JacketString1
					{
						OFFSET 0.364800 -5.904503 3.186800
						CHANNELS 3 Xrotation Yrotation Zrotation
						End Site
						{
							OFFSET 0.000000 6.719513 0.000000
						}
					}
				}
				JOINT HairE
				{
					OFFSET 5.915200 17.612701 -11.592200
					CHANNELS 3 Xrotation Yrotation Zrotation
					JOINT HairE1
					{
						OFFSET 0.289200 -7.171898 -1.284500
						CHANNELS 3 Xrotation Yrotation Zrotation
						End Site
						{
							OFFSET 0.000000 7.291756 0.000000
						}
					}
				}
				JOINT HairF
				{
					OFFSET -0.864800 17.612701 -11.592200
					CHANNELS 3 Xrotation Yrotation Zrotation
					JOINT HairF1
					{
						OFFSET 0.000000 -14.087097 -2.127501
						CHANNELS 3 Xrotation Yrotation Zrotation
						End Site
						{
							OFFSET 0.000000 14.246841 0.000000
						}
					}
				}
				JOINT HairG
				{
					OFFSET -8.087700 17.612701 -11.592200
					CHANNELS 3 Xrotation Yrotation Zrotation
					JOINT HairG1
					{
						OFFSET -0.293600 -6.081398 -0.910100
						CHANNELS 3 Xrotation Yrotation Zrotation
						End Site
						{
							OFFSET 0.000000 6.156120 0.000000
						}
					}
				}
			}
		}
	}
	JOINT Pouch
	{
		OFFSET 0.000000 4.394501 10.847300
		CHANNELS 3 Xrotation Yrotation Zrotation
		End Site
		{
			OFFSET 0.000000 21.880577 0.000000
		}
	}
	JOINT Bag
	{
		OFFSET -13.229000 4.813004 -0.593300
		CHANNELS 3 Xrotation Yrotation Zrotation
		End Site
		{
			OFFSET 0.000000 21.880577 0.000000
		}
	}
	JOINT OccupyGuyFacialAnim_Joint
	{
		OFFSET 1.000000 -70.206398 -1.655000
		CHANNELS 3 Xrotation Yrotation Zrotation
		End Site
		{
			OFFSET 0.000000 21.880577 0.000000
		}
	}
}
MOTION
Frames: 4
Frame Time: 0.016667
-73.818085 60.161697 -4.757156 5.532953 -58.193567 2.921422 -0.000000 0.000003 -0.000000 -41.491319 -22.055210 19.260327 42.027134 -4.182608 -9.279618 -2.300429 0.677263 -17.680524 0.000000 0.000001 -0.000000 0.000001 0.000000 0.000003 -49.552736 -1.574453 -12.059581 87.279729 6.682191 -7.096064 -20.781078 -4.842787 11.804884 -0.000001 0.000000 0.000000 0.000001 -0.000001 -0.000003 15.970036 1.313013 -4.449311 15.662358 2.194509 -5.768867 15.861041 2.321201 -5.742669 -14.884355 23.425669 6.721286 -15.964686 21.324452 2.083145 0.000001 -0.000000 0.000001 0.000001 -0.000000 0.000001 0.000001 -0.000000 0.000001 0.000001 -0.000000 -0.000000 0.000002 0.000000 0.000001 0.000001 -0.000000 -0.000000 0.000002 0.000000 0.000001 0.000001 -0.000000 0.000001 0.000001 -0.000000 0.000001 -0.592728 -13.563749 6.823819 -37.598402 23.788782 -23.345663 0.137182 -73.842432 0.102656 21.506999 -12.727032 33.551826 -0.176228 -1.991287 10.659558 -0.979206 11.076290 -5.731065 0.000000 0.000003 -0.000001 13.247445 -0.979859 21.207946 -0.180144 0.297628 -20.577343 0.000001 -0.000000 -0.000002 8.602423 -0.416368 9.612755 0.200401 0.617483 -19.373456 -0.000000 0.000003 -0.000001 6.158755 3.074127 -5.684665 0.025724 0.262738 -19.597358 -0.000001 0.000000 0.000001 -5.613879 7.660090 -3.352562 0.187033 0.237972 -36.060189 0.000002 0.000001 -0.000002 -0.000001 0.000002 -0.000001 -2.118351 13.247528 13.753732 -38.399074 -0.958070 39.774183 151.512433 110.498138 -153.014269 -21.986328 0.700025 -2.641050 1.093335 1.408792 -13.987311 3.986625 -25.048824 0.080542 -0.000001 -0.000002 0.000000 19.464659 11.168259 -4.447424 -0.110047 -0.329365 26.935975 -0.000002 0.000000 0.000000 4.244748 2.329699 4.090266 0.378203 -0.490156 35.790628 0.000000 0.000000 0.000003 -7.005497 -10.749412 14.617062 0.115651 -0.151321 35.055973 0.000001 0.000001 -0.000000 -19.412755 -20.240292 14.888260 0.269428 -0.116268 45.744827 0.000001 0.000002 -0.000001 -0.000000 -0.000000 -0.000002 0.000001 -0.000001 -0.000000 -0.000000 0.000001 -0.000002 0.000001 -0.000001 0.000001 0.000001 -0.000001 0.000001 0.000001 -0.000001 -0.000000 -0.000000 0.000001 -0.000001 0.000001 -0.000001 0.000001 0.000001 -0.000001 0.000001 0.000001 -0.000001 -0.000000 -0.000000 0.000001 -0.000001 -0.000000 0.000003 -0.000000 -0.000000 0.000003 -0.000000 -0.000000 0.000003 -0.000000 
-74.762192 60.156578 -4.652055 4.064812 -58.536483 1.696576 0.000000 -0.000000 0.000000 -40.156591 -21.702224 20.117007 43.019902 -4.969495 -9.577156 -3.846249 0.921289 -17.646514 0.000000 -0.000000 -0.000000 -0.000001 0.000000 -0.000003 -48.882322 -1.146511 -12.553547 83.774019 3.458529 -7.350564 -23.400155 -6.291017 10.070597 0.000001 0.000000 0.000000 -0.000003 -0.000002 -0.000001 15.899758 1.152198 -4.454120 15.476336 1.900081 -5.988026 15.663092 2.020913 -5.953953 -15.640636 24.355947 6.043406 -15.299784 22.041524 1.948354 0.000000 0.000000 -0.000002 0.000000 0.000000 -0.000002 0.000000 0.000000 -0.000002 0.000000 0.000000 -0.000002 -0.000001 0.000000 -0.000002 0.000000 0.000000 -0.000002 -0.000001 0.000000 -0.000002 0.000000 0.000000 -0.000002 0.000000 0.000000 -0.000002 -1.370436 -14.343343 3.032924 -38.279638 22.614263 -23.089904 0.142052 -75.187802 0.107940 21.180302 -12.561875 30.726347 -0.172644 -1.962146 10.669726 -0.991713 11.049015 -5.744193 -0.000000 0.000002 0.000001 13.246170 -0.979981 21.241415 -0.180220 0.297650 -20.543872 0.000002 -0.000000 -0.000000 8.602996 -0.416592 9.646225 0.200008 0.617172 -19.339954 0.000001 0.000001 -0.000001 6.160624 3.072679 -5.651289 0.025773 0.262527 -19.563875 -0.000002 0.000002 0.000000 -5.609809 7.658654 -3.319393 0.186938 0.238056 -36.026707 -0.000002 0.000001 -0.000000 0.000003 0.000002 0.000001 -2.145725 13.116420 13.287853 -38.908504 -2.796938 41.271148 150.551453 108.832685 -151.840843 -18.983473 0.814733 -0.184478 1.100670 1.316003 -14.020264 4.097950 -25.391049 -0.046746 -0.000005 -0.000001 0.000000 19.480345 11.186118 -4.051262 -0.109616 -0.329616 27.333162 -0.000001 0.000000 0.000002 4.235014 2.325056 4.487357 0.380043 -0.491319 36.187790 0.000001 0.000000 0.000001 -7.026280 -10.770437 15.013181 0.116068 -0.154265 35.453166 0.000002 0.000001 -0.000000 -19.446513 -20.272560 15.280812 0.270973 -0.117542 46.141951 -0.000001 0.000003 0.000001 -0.000000 -0.000002 -0.000001 -0.000000 0.000001 0.000001 -0.000003 -0.000002 0.000001 -0.000000 0.000001 -0.000003 -0.000000 0.000001 -0.000003 -0.000000 0.000001 0.000001 -0.000003 -0.000002 0.000002 -0.000000 0.000001 -0.000003 -0.000000 0.000001 -0.000003 -0.000000 0.000001 0.000001 -0.000003 -0.000002 0.000002 0.000000 -0.000000 0.000000 0.000000 -0.000000 0.000000 0.000000 -0.000000 0.000000 
-75.661324 60.178574 -4.546909 2.641400 -58.775704 0.569535 0.000000 -0.000001 0.000000 -38.847568 -21.133321 20.886201 43.676656 -5.812920 -9.821034 -5.159882 1.117811 -17.534448 -0.000000 -0.000001 0.000000 -0.000002 0.000000 -0.000002 -47.836770 -0.902136 -13.151122 79.436808 0.869982 -7.695993 -24.661699 -7.348878 9.840980 0.000001 -0.000000 0.000000 -0.000002 0.000001 -0.000001 15.824385 0.995879 -4.443761 15.281068 1.631117 -6.174519 15.452405 1.743129 -6.133696 -16.471730 25.128983 5.368878 -14.460294 22.658893 1.648728 0.000001 0.000000 0.000001 0.000001 0.000000 0.000001 0.000001 0.000000 0.000000 0.000001 0.000000 -0.000000 -0.000001 -0.000000 -0.000000 0.000001 0.000000 -0.000000 -0.000001 -0.000000 -0.000000 0.000001 0.000000 0.000001 0.000001 0.000000 0.000001 -2.134488 -14.889225 -0.321561 -38.090862 21.313445 -23.421101 0.143798 -75.859646 0.109859 21.642677 -12.430013 28.334574 -0.171280 -1.951953 10.673364 -0.995524 11.040106 -5.747508 -0.000000 0.000003 0.000001 13.244942 -0.980198 21.252187 -0.180226 0.297739 -20.533237 0.000001 -0.000002 0.000001 8.603635 -0.416717 9.656907 0.199609 0.616962 -19.329311 0.000000 0.000001 0.000003 6.162580 3.070912 -5.640794 0.025950 0.262517 -19.553187 -0.000001 -0.000002 -0.000001 -5.608278 7.656861 -3.309139 0.186887 0.238176 -36.015987 -0.000002 -0.000005 -0.000003 -0.000003 -0.000001 0.000002 -2.213427 12.977073 12.820903 -38.520300 -3.822278 41.682295 149.720397 107.278079 -150.818473 -17.231138 2.319440 1.639096 1.099609 1.332549 -14.014478 4.157008 -25.569867 -0.112240 -0.000001 -0.000001 0.000002 19.490573 11.198345 -3.844280 -0.109441 -0.329735 27.540781 -0.000003 -0.000002 -0.000002 4.228743 2.322541 4.694900 0.381016 -0.491841 36.395370 -0.000001 -0.000001 0.000001 -7.040163 -10.784471 15.220095 0.116278 -0.155913 35.660793 -0.000001 -0.000000 -0.000001 -19.469246 -20.294731 15.485330 0.271731 -0.118156 46.349534 -0.000001 0.000002 -0.000001 0.000001 -0.000001 -0.000002 0.000001 0.000001 -0.000002 -0.000001 -0.000001 0.000001 0.000001 0.000001 -0.000001 0.000001 0.000001 -0.000001 0.000001 0.000001 -0.000002 -0.000001 -0.000001 0.000001 0.000001 0.000001 -0.000001 0.000001 0.000001 -0.000001 0.000001 0.000001 -0.000002 -0.000001 -0.000001 0.000001 0.000000 -0.000001 0.000000 0.000000 -0.000001 0.000000 0.000000 -0.000001 0.000000 
-76.518608 60.155304 -4.440064 1.288997 -58.923673 -0.429574 0.000000 0.000002 -0.000000 -37.756586 -20.434104 21.562559 44.334147 -6.801534 -10.076514 -6.401243 1.304275 -17.325656 0.000000 -0.000002 0.000000 -0.000004 0.000002 0.000000 -46.131009 -0.921696 -13.976058 73.677749 0.317990 -8.026287 -22.738883 -7.001620 12.031956 0.000000 0.000002 -0.000000 0.000004 -0.000002 -0.000001 15.743829 0.837260 -4.434026 15.077523 1.383984 -6.329468 15.230652 1.483815 -6.284081 -17.484617 25.776260 4.725520 -13.493821 23.182099 1.276604 -0.000000 -0.000000 0.000000 -0.000000 -0.000000 0.000000 -0.000000 -0.000000 0.000002 -0.000000 -0.000000 0.000001 -0.000000 -0.000000 0.000001 -0.000000 -0.000000 0.000001 -0.000000 -0.000000 0.000001 -0.000000 -0.000000 0.000000 -0.000000 -0.000000 0.000000 -2.761772 -14.973141 -2.599941 -36.570653 20.101431 -24.497425 0.136203 -75.533587 0.102037 22.628494 -12.613159 26.528096 -0.175602 -1.983305 10.662196 -0.950359 11.151380 -5.698974 0.000001 -0.000001 -0.000001 13.243774 -0.980680 21.119420 -0.180062 0.297928 -20.665904 0.000000 0.000001 -0.000002 8.602297 -0.415819 9.524140 0.199714 0.617413 -19.462042 0.000000 0.000002 -0.000001 6.163247 3.070122 -5.773600 0.026167 0.263573 -19.685929 -0.000002 0.000002 -0.000000 -5.603429 7.655371 -3.442077 0.187317 0.238835 -36.148752 -0.000000 -0.000001 0.000001 -0.000001 0.000000 0.000002 -2.248354 12.848363 12.353120 -38.156251 -4.801571 41.733224 148.594235 105.662644 -149.509467 -15.782207 4.369582 3.355037 1.092516 1.427158 -13.981078 4.180325 -25.639285 -0.137698 -0.000003 0.000001 0.000000 19.497137 11.206762 -3.763929 -0.109356 -0.329803 27.621562 -0.000001 -0.000000 0.000000 4.225238 2.321627 4.775588 0.381431 -0.492048 36.476133 0.000003 0.000001 -0.000001 -7.049295 -10.793704 15.300462 0.116322 -0.156704 35.741536 -0.000000 -0.000002 -0.000001 -19.484416 -20.310020 15.564191 0.272090 -0.118421 46.430287 0.000001 0.000000 0.000001 -0.000001 -0.000002 -0.000002 0.000002 0.000000 -0.000001 0.000002 -0.000002 0.000001 0.000002 0.000000 -0.000002 0.000002 0.000000 -0.000002 0.000002 0.000000 -0.000001 0.000002 -0.000002 0.000001 0.000002 0.000000 -0.000002 0.000002 0.000000 -0.000002 0.000002 0.000000 -0.000001 0.000002 -0.000002 0.000001 0.000000 0.000002 -0.000000 0.000000 0.000002 -0.000000 0.000000 0.000002 -0.000000 
